<svg width="129" height="30" viewBox="0 0 129 30" fill="none" xmlns="http://www.w3.org/2000/svg">
<g clip-path="url(#clip0_1812_16)">
<path d="M44.6195 28.9069L31.6475 0.922363H35.1783C36.7902 0.922363 38.2486 1.88598 38.9395 3.39081L46.0652 19.0727L53.1397 3.40401C53.8177 1.89918 55.2889 0.922363 56.9008 0.922363H60.4573L47.4852 28.9069H44.6195Z" fill="black"/>
<path fill-rule="evenodd" clip-rule="evenodd" d="M30.1242 28.9191H23.8813C19.9154 23.4014 15.5019 21.5006 10.5254 20.867L7.72374 26.4639C6.77706 28.1007 5.38262 28.9191 3.77071 28.9191H0.546875L13.8644 0.93457H16.7812L30.1242 28.9191ZM12.7386 16.1677C14.8622 16.5901 16.9219 17.2765 18.8664 18.2269L15.3356 10.5444L12.7386 16.1677Z" fill="black"/>
<path d="M125.88 0.922363C124.306 0.922363 123.027 2.24239 123.027 3.86602L123.04 18.6239L108.878 0.922363H104.682V28.9069H107.279C108.852 28.9069 110.131 27.5869 110.131 25.9633L110.119 11.2318L121.735 25.8049C121.735 25.8049 124.012 28.9201 127.325 28.9201H128.489V0.922363H125.88Z" fill="black"/>
<path fill-rule="evenodd" clip-rule="evenodd" d="M94.7934 14.9936C94.7934 18.9669 93.2838 22.6497 90.5333 25.369C87.8212 28.1146 84.2008 29.6327 80.3501 29.6327C76.4355 29.6327 72.9174 28.1542 70.1541 25.3558C67.442 22.5969 65.958 18.9141 65.958 14.9936C65.958 11.0071 67.4548 7.31102 70.1541 4.55216C72.8406 1.81971 76.3715 0.367676 80.3373 0.367676C84.3287 0.367676 87.8596 1.81971 90.5333 4.55216C93.271 7.29782 94.7806 11.0071 94.7934 14.9936ZM89.254 14.9936C89.254 9.92467 85.2626 5.80619 80.3373 5.80619C75.4248 5.80619 71.4334 9.92467 71.4334 14.9936C71.4334 20.0493 75.4248 24.181 80.3373 24.181C85.2498 24.1678 89.254 20.0493 89.254 14.9936Z" fill="black"/>
</g>
<defs>
<clipPath id="clip0_1812_16">
<rect width="127.93" height="29.265" fill="white" transform="translate(0.546875 0.367676)"/>
</clipPath>
</defs>
</svg>
