<svg width="188" height="44" viewBox="0 0 188 44" fill="none" xmlns="http://www.w3.org/2000/svg">
<path d="M90.8504 29.4224C90.8504 27.2316 90.9843 25.0307 90.8209 22.8516C90.5371 19.0735 88.382 15.7993 83.7364 15.5917C79.9807 15.4243 76.9301 16.8223 75.2565 20.4812C74.3817 22.3944 74.0611 24.4288 73.9324 26.5044C73.755 29.3604 73.9375 32.1805 74.8485 34.9152C75.6841 37.4247 77.0734 39.5322 79.5991 40.709C81.6243 41.6524 83.7613 41.6118 85.9137 41.2947C87.0072 41.1333 88.0496 40.8192 88.9301 40.129C90.2791 39.0719 90.7702 37.5891 90.8292 35.9941C90.9098 33.8059 90.8493 31.6131 90.8504 29.4224ZM90.9104 15.5633C90.9104 15.3847 90.9104 15.167 90.9104 14.9488C90.9104 10.5652 90.9104 6.18117 90.9114 1.79763C90.9114 0.613191 91.264 0.203658 92.4589 0.151896C93.3859 0.111298 94.3202 0.125509 95.2457 0.190973C96.1278 0.253899 96.4659 0.66901 96.4949 1.54592C96.5001 1.70781 96.4959 1.8702 96.4959 2.03259C96.4959 13.1746 96.4706 24.3172 96.5151 35.4592C96.5249 37.925 96.7731 40.3909 96.9261 42.8556C96.9654 43.4854 96.6965 43.7818 96.0497 43.6742C95.7529 43.625 95.4381 43.5189 95.194 43.3509C93.2525 42.0148 91.2573 42.0483 89.0811 42.8287C84.9205 44.3217 80.7066 44.1741 76.6029 42.6217C71.8275 40.8146 69.1327 37.2303 68.1638 32.3804C67.3706 28.412 67.7207 24.5369 69.6761 20.9166C72.087 16.4534 75.9219 13.9764 81.0091 13.3375C83.5115 13.0234 85.9618 13.2162 88.2978 14.1957C89.1788 14.5651 89.9968 15.0792 90.9104 15.5633Z" fill="black"/>
<path d="M181.914 30.1727H181.978C181.978 28.5127 182.025 26.8508 181.959 25.1937C181.923 24.2792 181.807 23.3386 181.535 22.469C180.497 19.1683 177.592 17.0163 174.237 16.9642C170.717 16.9096 168.193 18.6927 166.903 22.1504C166.284 23.8113 166.037 25.5428 165.933 27.2994C165.765 30.1496 165.939 32.9655 166.916 35.6814C167.8 38.1386 169.248 40.1226 171.808 41.1018C173.593 41.7855 175.437 41.7218 177.287 41.4383C178.4 41.2679 179.447 40.9285 180.301 40.1588C181.448 39.126 181.849 37.7581 181.897 36.3062C181.964 34.2638 181.914 32.2176 181.914 30.1727ZM182.129 18.3668C182.129 17.6846 182.123 17.1491 182.131 16.6136C182.14 15.9382 182.445 15.4988 183.101 15.4597C184.149 15.3979 185.206 15.3959 186.253 15.463C186.924 15.506 187.205 15.9468 187.205 16.6812C187.206 22.8399 187.163 28.999 187.226 35.1571C187.252 37.7528 187.494 40.3466 187.65 42.9409C187.685 43.5083 187.43 43.8366 186.868 43.7057C186.37 43.5899 185.885 43.3494 185.44 43.0872C184.043 42.264 182.6 42.0911 181.071 42.6643C180.635 42.8279 180.191 42.9757 179.742 43.1051C175.515 44.3247 171.361 44.1239 167.38 42.2432C163.927 40.6117 161.772 37.8315 160.789 34.1943C159.611 29.8323 159.916 25.5887 162.141 21.5888C165.58 15.408 172.376 13.7548 177.521 15.197C179.179 15.662 180.535 16.6117 181.68 17.869C181.796 17.997 181.911 18.1254 182.129 18.3668Z" fill="black"/>
<path d="M126.771 29.2598C126.803 27.2331 126.567 25.1044 125.997 23.022C125.417 20.9025 124.534 18.9148 122.821 17.4448C120.066 15.0814 116.909 14.9451 113.658 16.1747C110.858 17.2339 109.322 19.4797 108.535 22.232C107.427 26.1074 107.653 30.0006 108.621 33.8669C109.159 36.0209 110.123 37.9604 111.788 39.516C115.231 42.7318 122.539 42.2004 125.231 36.8641C126.423 34.5033 126.807 31.9918 126.771 29.2598ZM117.394 13.0897C121.663 13.1425 125.398 14.3239 128.393 17.3272C130.706 19.647 131.946 22.4997 132.379 25.6901C132.87 29.3069 132.446 32.8137 130.686 36.0691C128.286 40.5058 124.523 43.068 119.475 43.7124C116.132 44.1389 112.884 43.7236 109.833 42.2491C105.298 40.0566 102.783 36.3687 102.023 31.5162C101.381 27.4207 102.022 23.5087 104.339 19.9862C107.09 15.8015 111.062 13.5882 116.07 13.1516C116.539 13.111 117.011 13.107 117.394 13.0897Z" fill="black"/>
<path d="M62.5881 28.0549C62.5881 31.9106 62.5655 35.7668 62.6032 39.6225C62.6132 40.6632 62.8226 41.7015 62.9005 42.7437C62.9216 43.0316 62.8935 43.4698 62.7152 43.5895C62.4887 43.7414 62.0689 43.7058 61.7651 43.6276C61.4467 43.546 61.1524 43.3397 60.8737 43.1508C59.5138 42.2288 58.06 42.0621 56.5284 42.6354C54.0386 43.5673 51.4735 44.0006 48.8105 43.8373C46.6305 43.7043 44.5114 43.3284 42.581 42.256C39.6573 40.6331 38.1639 38.012 37.5326 34.8938C37.2092 33.2961 37.046 31.6445 37.0224 30.0146C36.9562 25.4066 36.9988 20.797 36.9993 16.188C36.9993 15.171 37.2966 14.8064 38.3165 14.751C39.2355 14.7006 40.163 14.6976 41.082 14.754C42.0763 14.8153 42.3746 15.1809 42.3751 16.1573C42.3761 20.9048 42.359 25.6524 42.3831 30.3995C42.3932 32.4755 42.5263 34.547 43.1635 36.5498C43.8847 38.8172 45.1506 40.6182 47.6078 41.2781C49.7129 41.8434 51.8331 41.7193 53.89 41.0495C56.0518 40.3452 56.8131 38.6095 57.015 36.5572C57.1019 35.6743 57.1205 34.7825 57.122 33.8946C57.1305 28 57.126 22.1053 57.1265 16.2102C57.1265 15.169 57.4268 14.8015 58.4803 14.7431C59.3998 14.6922 60.3273 14.7021 61.2468 14.7565C62.1924 14.8124 62.5078 15.1922 62.5083 16.1271C62.5103 20.103 62.5088 24.0789 62.5088 28.0549H62.5881Z" fill="black"/>
<path d="M7.6427 27.8868C7.86335 27.9767 8.03365 28.0566 8.21136 28.1159C10.5265 28.8909 11.6594 30.4142 11.7734 32.8567C11.8272 34.0168 11.8554 35.1867 12.0306 36.3309C12.4497 39.0661 14.0649 40.6704 16.7976 41.1814C18.7347 41.5432 20.682 41.6474 22.6008 41.1315C25.644 40.3136 27.4735 38.224 28.48 35.3254C28.6216 34.9171 28.7327 34.4976 28.8443 34.0794C28.9751 33.5898 29.3009 33.4096 29.7772 33.4807C30.2497 33.5513 30.3726 33.9156 30.3602 34.31C30.2941 36.399 30.2087 38.4876 30.1302 40.5767C30.1001 41.3778 29.6222 41.869 28.9238 42.0906C27.4646 42.5537 26.0049 43.0616 24.5067 43.3479C21.3425 43.9526 18.1536 43.9768 14.983 43.3247C9.72386 42.2427 7.05428 39.2093 6.63272 33.8573C6.56657 33.0132 6.5646 32.1627 6.45896 31.3245C6.31383 30.1733 5.63212 29.4072 4.52243 29.1071C3.57515 28.8514 2.59677 28.7127 1.63764 28.4979C1.24717 28.411 0.6558 28.5058 0.667153 27.8838C0.677026 27.3098 1.23088 27.3868 1.61296 27.3132C2.40573 27.1597 3.21233 27.0674 3.99671 26.8813C5.98162 26.4113 6.77143 25.4043 6.78772 23.3597C6.80105 21.6616 6.77884 19.9635 6.79562 18.2654C6.80352 17.4484 6.45797 16.8521 5.75306 16.4844C5.26683 16.2306 4.74062 16.0544 4.2381 15.8303C4.00609 15.7271 3.72916 15.6407 3.58058 15.4586C3.44088 15.2873 3.35746 14.9778 3.41028 14.7705C3.45372 14.6016 3.72028 14.4619 3.91576 14.3691C4.04608 14.3074 4.22625 14.3484 4.38422 14.3484C12.1639 14.3474 19.9436 14.3469 27.7232 14.3499C27.9982 14.3499 28.2761 14.3667 28.5481 14.4052C29.2797 14.5093 29.644 14.8726 29.6825 15.6141C29.8049 17.9969 29.9041 20.3806 30.0137 22.7639C30.0334 23.2017 29.9263 23.5646 29.4292 23.6391C28.9292 23.7146 28.674 23.4352 28.5274 22.9835C28.2963 22.2732 28.0579 21.5643 27.7854 20.8693C26.7128 18.1385 24.6104 16.7929 21.7666 16.6808C18.8102 16.5643 15.8469 16.6083 12.8866 16.6068C11.922 16.6063 11.5789 16.975 11.571 17.9524C11.5572 19.69 11.5671 21.4276 11.5671 23.1652C11.5671 25.5968 10.1889 27.2944 7.79276 27.8152C7.76314 27.8217 7.73649 27.8414 7.6427 27.8868Z" fill="black"/>
<path d="M139.363 30.0389C139.363 26.6503 139.388 23.2613 139.348 19.8732C139.335 18.7686 139.135 17.6673 139.056 16.5618C139.036 16.2873 139.059 15.8692 139.225 15.7567C139.439 15.6126 139.818 15.6932 140.124 15.7148C140.242 15.7233 140.366 15.8189 140.466 15.9008C142.417 17.5073 144.559 17.245 146.733 16.5166C148.069 16.0684 149.365 15.4898 150.717 15.1018C152.252 14.6611 153.851 14.6503 155.44 14.7835C156.522 14.8749 156.958 15.3386 156.856 16.3938C156.756 17.439 156.575 18.4795 156.375 19.5116C156.255 20.135 155.685 20.3949 155.05 20.1265C154.621 19.9452 154.214 19.6896 153.837 19.4132C152.084 18.1288 150.146 17.762 148.04 18.2168C146.037 18.6495 145.172 20.0921 144.849 21.9397C144.694 22.8244 144.614 23.7331 144.61 24.6309C144.589 29.997 144.6 35.363 144.6 40.7286C144.6 41.7791 144.256 42.175 143.212 42.2226C142.401 42.2598 141.586 42.2584 140.775 42.223C139.756 42.1788 139.398 41.7772 139.398 40.771C139.396 37.1936 139.397 33.6163 139.397 30.0389H139.363Z" fill="black"/>
<path d="M12.6133 27.8936C12.6133 26.7879 12.6064 25.6821 12.6217 24.5769C12.6242 24.4278 12.7229 24.2659 12.8201 24.1435C12.8414 24.1168 13.0916 24.1998 13.1573 24.2901C14.302 25.8722 16.0046 26.4201 17.7984 26.7128C19.4299 26.9794 21.0831 27.1122 22.7264 27.3062C23.1489 27.356 23.7137 27.3166 23.7058 27.9084C23.6979 28.4929 23.1282 28.4662 22.7091 28.4983C20.4483 28.6716 18.1864 28.8256 16.008 29.532C14.9122 29.8869 13.9757 30.4679 13.2471 31.3752C13.139 31.5095 12.9435 31.5737 12.788 31.6704C12.7298 31.4976 12.6237 31.3249 12.6212 31.1511C12.6054 30.0656 12.6133 28.9796 12.6133 27.8936Z" fill="black"/>
</svg>
