<svg width="187" height="38" viewBox="0 0 187 38" fill="none" xmlns="http://www.w3.org/2000/svg">
<path d="M73.892 11.7598C81.1963 11.7598 84.8484 16.5357 84.8484 21.0306V31.1443H80.0726V21.0306C80.0726 18.2213 78.387 13.4454 73.892 13.4454C69.397 13.4454 67.7114 18.2213 67.7114 21.0306V31.1443H62.9355V21.0306C62.9355 16.5357 66.3068 11.7598 73.892 11.7598" fill="black"/>
<path d="M138.192 32.072C130.888 32.072 127.235 27.2961 127.235 22.8011V12.6875H132.011V22.8011C132.011 25.6105 133.697 30.3864 138.192 30.3864C142.687 30.3864 144.372 25.6105 144.372 22.8011V12.6875H149.148V22.8011C148.867 27.2961 145.496 32.072 138.192 32.072Z" fill="black"/>
<path d="M103.671 30.0203C102.548 30.8631 101.424 31.425 99.7384 31.706C94.9625 32.5488 88.501 29.1775 88.2201 22.1542C87.9392 15.1308 94.9625 12.0405 99.4575 12.0405C107.043 12.3215 109.852 18.2211 109.852 21.5923V31.425H105.076V21.5923C105.076 19.3448 103.952 14.0071 99.1765 14.0071C94.4006 14.0071 92.996 18.502 92.996 21.5923C92.996 23.8398 93.5578 28.8966 98.8956 29.1775C100.581 29.1775 102.829 28.8966 103.671 28.3347V30.0203Z" fill="black"/>
<path d="M124.742 34.2352C124.18 34.5161 122.494 34.797 120.528 34.2352C118.28 33.6733 114.628 32.5495 114.628 24.9643C114.628 22.4359 114.628 3.61328 114.628 3.61328H119.123V12.0413H123.337V15.1316H119.123C119.123 15.1316 119.123 21.0312 119.123 26.088C119.123 30.3021 120.247 31.9877 121.37 32.2686C122.494 32.8305 124.461 32.5495 124.742 32.5495V34.2352Z" fill="black"/>
<path d="M153.674 20.7504C153.674 15.9745 156.203 12.6032 160.417 12.3223C163.507 12.0414 164.35 12.6032 164.35 12.6032V14.5698C164.35 14.5698 162.664 14.0079 160.979 14.5698C159.012 15.1317 158.169 18.2219 158.169 19.0647V31.7068H153.394L153.674 20.7504Z" fill="black"/>
<path d="M180.366 30.0203C179.242 30.8631 178.118 31.425 176.433 31.706C171.657 32.5488 165.195 29.1775 164.914 22.1542C164.633 15.1308 171.657 12.0405 176.152 12.0405C183.737 12.3215 186.546 18.2211 186.546 21.5923V31.425H181.771V21.5923C181.771 19.3448 180.647 14.0071 175.871 14.0071C171.095 14.0071 169.69 18.502 169.69 21.5923C169.69 23.8398 170.252 28.8966 175.59 29.1775C177.276 29.1775 179.523 28.8966 180.366 28.3347V30.0203Z" fill="black"/>
<path d="M25.5965 11.6461C24.7123 14.689 24.5355 15.405 24.005 17.0159C23.6513 18.2689 22.944 18.8059 22.0598 18.8059C21.3525 18.8059 20.6452 18.4479 20.1147 17.7319C18.5232 15.763 16.4012 12.8991 15.1634 11.2881C13.5719 9.49822 9.8584 7.88728 7.91324 10.2142C5.26076 13.6151 8.44374 17.5529 10.3889 19.8798C10.5657 20.0588 10.7426 20.2378 10.7426 20.4168C11.0962 20.9538 11.6267 21.3118 11.9804 21.8488C12.8645 22.9227 13.7487 23.6387 13.2182 24.3547C13.0414 24.7127 12.5109 24.8917 11.9804 24.8917C10.5657 24.8917 5.96809 23.6387 4.9071 23.4597C4.02293 23.2807 3.3156 23.2807 2.96194 23.9967C2.60827 24.8917 3.8461 27.2186 6.85225 28.8295C9.8584 30.4405 14.8097 31.1564 15.1634 31.3354C16.9317 31.6934 16.578 32.5884 16.2244 33.1254C16.0475 33.3043 16.0475 33.3043 15.8707 33.4833C15.517 33.8413 15.3402 34.0203 15.3402 34.3783C15.517 35.4523 17.9927 35.8103 19.4073 35.9892C20.822 36.1682 22.5903 36.3472 23.8281 35.8103C25.066 35.2733 25.066 34.5573 25.9501 34.1993C26.8343 33.8413 27.188 34.0203 28.2489 34.1993C28.6026 34.3783 29.1331 34.3783 29.8404 34.5573C31.4319 34.9153 34.0844 34.5573 35.6759 34.0203C38.5052 33.1254 39.743 32.0514 39.743 31.6934C39.743 31.3354 39.2125 31.1564 38.682 31.1564C38.1516 30.9774 36.0296 30.6194 35.3222 30.2615C34.6149 29.7245 35.1454 29.0085 36.5601 28.4715C37.9747 27.9345 42.5724 25.9656 44.3407 24.3547C46.109 22.7437 47.7005 20.0588 46.2858 18.6269C45.048 17.1949 42.926 18.2689 41.5114 18.9849C41.3345 19.1639 41.1577 19.1639 40.9809 19.3429C39.2126 20.2378 36.2064 21.8488 35.1454 22.0278C34.2612 22.2068 32.6698 22.2068 33.3771 20.0588C34.2612 17.5529 34.7917 15.942 35.3222 14.331C36.0296 12.3621 37.0906 7.70828 32.4929 6.27634C29.1331 5.02338 26.8343 7.88728 25.5965 11.6461V11.6461ZM21.3525 13.0781C21.3525 13.0781 22.7671 8.24526 23.8281 6.09734C25.5965 2.51748 28.7794 0.727539 32.1393 0.727539C32.6698 0.727539 33.2003 0.727537 33.5539 0.906534C40.4504 2.15948 40.6272 9.31922 40.0967 11.8251C39.5662 14.152 38.6821 16.479 38.5052 17.1949C38.5052 17.3739 38.5052 17.3739 38.5052 17.3739C39.0357 17.1949 41.5114 15.942 44.1639 14.689C46.8163 13.6151 51.5908 13.6151 50.353 18.9849C49.1152 24.5337 42.926 27.7556 42.2187 27.9345C41.6882 28.2925 40.804 28.6505 40.6272 28.8295C40.4504 29.0085 40.4504 29.0085 40.6272 29.0085C40.804 29.0085 40.9809 29.0085 41.3345 29.1875C42.2187 29.1875 43.4565 29.3665 43.4565 30.0825C43.4565 31.1564 41.865 32.7674 37.4442 34.7363C32.8466 36.8842 28.9563 35.8103 27.8953 35.6313C27.5416 35.9892 25.4196 38.1372 19.4073 36.8842C14.9865 36.1682 13.9255 35.6313 12.8645 34.3783C12.5109 34.0203 12.334 33.4833 12.6877 32.5884C12.8645 32.4094 12.8645 32.2304 12.6877 32.2304C5.96809 30.7984 1.90095 26.5026 0.48629 23.8177C-0.221042 22.3857 -0.0442068 21.4908 0.309456 20.9538C0.839955 20.0588 2.60827 20.0588 4.3766 20.5958C6.49858 21.1328 7.55958 21.4908 7.91324 21.4908C8.09008 21.4908 8.09008 21.4908 7.91324 21.3118C7.38274 20.5958 5.61442 18.2689 4.73026 16.837C3.13877 14.331 1.19362 7.88728 6.32175 5.20238C11.8035 2.15949 16.7549 7.52929 17.8158 8.78224C18.7 10.0352 20.6452 12.5411 20.822 12.8991C21.1757 13.4361 21.3525 13.0781 21.3525 13.0781V13.0781Z" fill="black"/>
</svg>
