<svg width="242" height="32" viewBox="0 0 242 32" fill="none" xmlns="http://www.w3.org/2000/svg">
<path d="M52.5732 15.3339C55.1213 14.0018 56.969 11.7216 56.969 8.68542C56.969 3.40506 52.8631 0.380859 45.7261 0.380859H32.2249V31.4989H46.8008C53.805 31.4989 58.1645 28.1267 58.1645 22.7144C58.1645 19.0541 55.7372 16.6179 52.5732 15.3339ZM45.8468 14.1578H37.4539V2.96103H45.3638C49.8199 2.96103 51.7158 4.67715 51.7158 8.67342C51.7158 12.5497 49.9648 14.1578 45.8468 14.1578ZM37.4539 28.9068V16.738H45.7744C48.407 16.738 52.8148 17.518 52.8148 22.7864C52.8148 27.0827 50.9067 28.9188 46.4144 28.9188H37.4539V28.9068ZM0.476562 18.1781C0.476562 10.7616 6.16445 4.73715 13.1928 4.73715C20.2091 4.73715 25.909 10.7616 25.909 18.1781C25.909 25.5946 20.197 31.619 13.1928 31.619C6.1886 31.607 0.476562 25.5826 0.476562 18.1781ZM5.40365 18.1781C5.40365 24.9705 8.31401 29.0268 13.1928 29.0268V29.0148C18.0474 29.0148 20.9457 24.9585 20.9457 18.1781C20.9457 11.3976 18.0716 7.32933 13.1928 7.32933C8.31401 7.32933 5.40365 11.3856 5.40365 18.1781ZM62.5723 18.1781C62.5723 10.7616 68.2602 4.73715 75.2886 4.73715C82.3048 4.73715 88.0048 10.7616 88.0048 18.1781C88.0048 25.5946 82.2928 31.619 75.2886 31.619C68.2844 31.619 62.5723 25.5826 62.5723 18.1781ZM67.4994 18.1781C67.4994 24.9705 70.4098 29.0268 75.2886 29.0268V29.0148C80.1432 29.0148 83.0415 24.9585 83.0415 18.1781C83.0415 11.3976 80.1673 7.32933 75.2886 7.32933C70.4098 7.32933 67.4994 11.3856 67.4994 18.1781ZM98.4024 7.62935H89.0916V5.07317H112.435V7.62935H103.088V31.2349H98.4024V7.62935ZM121.879 5.07317H117.157V31.2229H121.879V5.07317ZM139.824 28.9548C141.913 28.9548 145.657 28.2947 147.251 23.9144L147.709 22.6424L149.992 23.7704L149.618 24.8025C148.036 29.0868 144.389 31.559 139.618 31.559C132.445 31.559 127.047 25.7986 127.047 18.1781C127.047 10.6535 132.566 4.73715 139.618 4.73715C144.364 4.73715 147.987 7.22132 149.545 11.5656L149.907 12.5977L147.625 13.7498L147.166 12.4657C146.007 9.22545 143.326 7.36533 139.8 7.36533C134.897 7.36533 131.974 11.3856 131.974 18.1541C131.998 24.9225 134.921 28.9548 139.824 28.9548ZM199.492 26.4946L198.128 22.5223C197.584 21.0582 196.558 19.8342 195.205 19.0421C197.657 17.95 199.782 15.9099 199.782 12.6337C199.782 7.90536 195.978 5.08518 189.602 5.08518H180.013V31.2349H184.735V20.0982H188.853C191.872 20.0982 192.838 21.2983 193.671 23.6744L195 27.4427C195.338 28.5948 195.845 29.6868 196.485 30.6949L196.847 31.2109H203.187L200.941 29.1108C200.265 28.3787 199.758 27.4787 199.492 26.4946ZM184.747 7.62935H189.3C193.261 7.62935 194.964 9.12945 194.964 12.6577C194.964 16.0419 193.225 17.554 189.336 17.554H184.759C184.747 17.542 184.747 7.62935 184.747 7.62935ZM206.665 5.07317H211.387V31.2229H206.665V5.07317ZM229.284 4.73715C222.268 4.73715 216.568 10.7616 216.568 18.1781C216.568 25.5946 222.292 31.619 229.284 31.619C236.288 31.619 242 25.5946 242 18.1781C242 10.7616 236.288 4.73715 229.284 4.73715ZM229.284 7.29332C234.139 7.29332 237.037 11.3496 237.037 18.1421C237.037 24.9345 234.139 28.9908 229.284 28.9908C224.43 28.9908 221.471 24.9465 221.471 18.1541C221.471 11.3616 224.405 7.29332 229.284 7.29332ZM164.266 0.920896H167.031L164.894 5.98524L176.173 31.2349H171.161L167.188 22.3543H157.89L154.037 31.2229H151.272L164.266 0.920896ZM162.406 11.6976L158.952 19.7742H166.017L162.406 11.6976Z" fill="black"/>
</svg>
